PathFileType	4	(X/Y/Z)	/Users/giacomo/dev/rowing-video-analysis/sports2d_app/runs/gb8_20260203_210816/sports2d/input_Sports2D/input_Sports2D_px_person00.trc
DataRate	CameraRate	NumFrames	NumMarkers	Units	OrigDataRate	OrigDataStartFrame	OrigNumFrames
50.0	50.0	4	133	m	50.0	79	638
Frame#	Time	RHip			RKnee			RAnkle			RBigToe			RSmallToe			RHeel			LHip			LKnee			LAnkle			LBigToe			LSmallToe			LHeel			Nose			REye			LEye			REar			LEar			RShoulder			RElbow			RWrist			RThumb1			RThumb			RThumb3			RThumb4			RIndex			RIndex2			RIndex3			RIndex4			RMiddle1			RMiddle2			RMiddle3			RMiddle4			RRing1			RRing2			RRing3			RRing4			RPinky			RPinky2			RPinky3			RPinky4			LShoulder			LElbow			LWrist			LThumb1			LThumb			LThumb3			LThumb4			LIndex			LIndex2			LIndex3			LIndex4			LMiddle1			LMiddle2			LMiddle3			LMiddle4			LRing1			LRing2			LRing3			LRing4			LPinky			LPinky2			LPinky3			LPinky4			Jaw1			Jaw2			Jaw3			Jaw4			Jaw5			Jaw6			Jaw7			Jaw8			Jaw9			Jaw10			Jaw11			Jaw12			Jaw13			Jaw14			Jaw15			Jaw16			Jaw17			EyebrowR1			EyebrowR2			EyebrowR3			EyebrowR4			EyebrowR5			EyebrowL1			EyebrowL2			EyebrowL3			EyebrowL4			EyebrowL5			Nose1			Nose2			Nose3			Nose4			Nose5			Nose6			Nose7			Nose8			Nose9			REye1			REye2			REye3			REye4			REye5			REye6			LEye1			LEye2			LEye3			LEye4			LEye5			LEye6			Mouth1			Mouth2			Mouth3			Mouth4			Mouth5			Mouth6			Mouth7			Mouth8			Mouth9			Mouth10			Mouth11			Mouth12			Mouth13			Mouth14			Mouth15			Mouth16			Mouth17			Mouth18			Mouth19			Mouth20			Hip			Neck			
		X1	Y1	Z1	X2	Y2	Z2	X3	Y3	Z3	X4	Y4	Z4	X5	Y5	Z5	X6	Y6	Z6	X7	Y7	Z7	X8	Y8	Z8	X9	Y9	Z9	X10	Y10	Z10	X11	Y11	Z11	X12	Y12	Z12	X13	Y13	Z13	X14	Y14	Z14	X15	Y15	Z15	X16	Y16	Z16	X17	Y17	Z17	X18	Y18	Z18	X19	Y19	Z19	X20	Y20	Z20	X21	Y21	Z21	X22	Y22	Z22	X23	Y23	Z23	X24	Y24	Z24	X25	Y25	Z25	X26	Y26	Z26	X27	Y27	Z27	X28	Y28	Z28	X29	Y29	Z29	X30	Y30	Z30	X31	Y31	Z31	X32	Y32	Z32	X33	Y33	Z33	X34	Y34	Z34	X35	Y35	Z35	X36	Y36	Z36	X37	Y37	Z37	X38	Y38	Z38	X39	Y39	Z39	X40	Y40	Z40	X41	Y41	Z41	X42	Y42	Z42	X43	Y43	Z43	X44	Y44	Z44	X45	Y45	Z45	X46	Y46	Z46	X47	Y47	Z47	X48	Y48	Z48	X49	Y49	Z49	X50	Y50	Z50	X51	Y51	Z51	X52	Y52	Z52	X53	Y53	Z53	X54	Y54	Z54	X55	Y55	Z55	X56	Y56	Z56	X57	Y57	Z57	X58	Y58	Z58	X59	Y59	Z59	X60	Y60	Z60	X61	Y61	Z61	X62	Y62	Z62	X63	Y63	Z63	X64	Y64	Z64	X65	Y65	Z65	X66	Y66	Z66	X67	Y67	Z67	X68	Y68	Z68	X69	Y69	Z69	X70	Y70	Z70	X71	Y71	Z71	X72	Y72	Z72	X73	Y73	Z73	X74	Y74	Z74	X75	Y75	Z75	X76	Y76	Z76	X77	Y77	Z77	X78	Y78	Z78	X79	Y79	Z79	X80	Y80	Z80	X81	Y81	Z81	X82	Y82	Z82	X83	Y83	Z83	X84	Y84	Z84	X85	Y85	Z85	X86	Y86	Z86	X87	Y87	Z87	X88	Y88	Z88	X89	Y89	Z89	X90	Y90	Z90	X91	Y91	Z91	X92	Y92	Z92	X93	Y93	Z93	X94	Y94	Z94	X95	Y95	Z95	X96	Y96	Z96	X97	Y97	Z97	X98	Y98	Z98	X99	Y99	Z99	X100	Y100	Z100	X101	Y101	Z101	X102	Y102	Z102	X103	Y103	Z103	X104	Y104	Z104	X105	Y105	Z105	X106	Y106	Z106	X107	Y107	Z107	X108	Y108	Z108	X109	Y109	Z109	X110	Y110	Z110	X111	Y111	Z111	X112	Y112	Z112	X113	Y113	Z113	X114	Y114	Z114	X115	Y115	Z115	X116	Y116	Z116	X117	Y117	Z117	X118	Y118	Z118	X119	Y119	Z119	X120	Y120	Z120	X121	Y121	Z121	X122	Y122	Z122	X123	Y123	Z123	X124	Y124	Z124	X125	Y125	Z125	X126	Y126	Z126	X127	Y127	Z127	X128	Y128	Z128	X129	Y129	Z129	X130	Y130	Z130	X131	Y131	Z131	X132	Y132	Z132	X133	Y133	Z133
79	1.5824803767660909	362.6160309878161	537.0728362841504	0.0	535.9434325581254	558.8947327773634	0.0	608.8235315853698	687.3582099722662	0.0	672.7432929146867	630.938535295012	0.0	716.3070429909201	713.0078533478062	0.0	626.4695520236945	721.5358225906047	0.0	408.934733282686	515.779253721324	0.0	551.350577869121	540.8678806284116	0.0	624.601148362561	676.9361654529565	0.0	700.576630302664	657.1425411506881	0.0	723.903311011522	610.2554363561613	0.0	582.2700816922085	628.0723448862093	0.0	380.5309119417246	250.69194467782992	0.0	368.03441175737504	233.15152544135088	0.0	375.3453348317688	233.12758545364522	0.0	320.4408414042311	241.30019666775533	0.0	331.3428665774512	242.2372930863581	0.0	278.95855750070234	332.00903614432076	0.0	291.18948422749264	471.9861373497337	0.0	404.5489478299809	515.5867996959483	0.0	420.54768086113046	506.3156656880068	0.0	429.0952514159876	501.3283902448443	0.0	438.07449904302234	498.5845020024049	0.0	447.9087495569498	500.6664382016341	0.0	436.05016374888874	490.6000227923713	0.0	451.0604268105478	491.18236757829334	0.0	459.3048578125786	495.34039904824965	0.0	468.39543228282	502.4975267089787	0.0	438.0425739631636	493.24624291452335	0.0	453.8460035002695	494.6732498238813	0.0	460.8506015011687	498.89277770800675	0.0	466.3991915160957	505.6291750850987	0.0	438.05614677561425	499.9226561686131	0.0	453.63870042544505	498.7577774197945	0.0	459.7716468606125	502.6094667106433	0.0	465.51996635631554	507.3592263247015	0.0	437.9853209367103	507.2463818139227	0.0	450.13186726278514	505.551013148225	0.0	456.51561787293434	507.8192053215589	0.0	460.88083693683166	511.1007473853726	0.0	341.749238103493	337.02633468465655	0.0	397.6178689489371	445.38151517533294	0.0	503.47395637591086	497.7311330185413	0.0	522.4836488810882	501.2059396931984	0.0	527.9290523888643	501.3093026363607	0.0	539.1138705306831	503.171237189862	0.0	546.245555899616	507.3301041847503	0.0	541.7796493223756	486.9588279672192	0.0	552.2102658245832	492.6807851943738	0.0	555.6464203675883	498.75779712674796	0.0	555.7379526504873	507.24775775786276	0.0	543.2292509991934	485.84704513865864	0.0	555.7303191485462	492.0769692666763	0.0	557.9410814822259	499.9969971601164	0.0	556.9357807658797	508.052101562779	0.0	549.3579877664498	486.9512346879427	0.0	557.6140355547093	493.87152586806616	0.0	559.3602497217094	500.5500697784272	0.0	558.878863848591	507.2537182011441	0.0	552.4443957248967	489.633747753478	0.0	555.6178082375819	494.81512376317573	0.0	557.7822574224559	501.0755096612733	0.0	559.0544701906035	505.365365134543	0.0	330.7329043564242	228.0525869955274	0.0	330.9684187248632	237.57275605384683	0.0	332.29090921145746	245.97812329703336	0.0	334.344577265325	254.8542149893159	0.0	337.448296785762	263.38148992700997	0.0	342.7067038731302	269.7039847403689	0.0	349.6816774765634	275.36446551438485	0.0	357.49863619110266	280.2925846699324	0.0	364.5546385688394	282.83630012569546	0.0	369.87627881794566	282.0032916875103	0.0	370.86050382841063	276.0744716132031	0.0	370.4927521461216	269.5336131068635	0.0	370.68578625908145	263.01558903482976	0.0	371.7597082873518	255.2962786168978	0.0	372.41358729376464	246.01694402952543	0.0	372.72565288230624	237.34933951638737	0.0	373.4338720155583	227.67594917720064	0.0	358.87124038523064	224.11669922456332	0.0	364.1725906670553	222.47195134400562	0.0	368.79792122775626	221.35778363317772	0.0	372.6175746159064	221.96568800183448	0.0	374.7800010225901	223.23741217945988	0.0	378.2308959446177	223.05126858322006	0.0	378.6412236200625	222.447793466188	0.0	378.6917544326066	221.9446906846708	0.0	378.921198964417	223.06007686347337	0.0	378.6498986247167	223.89342603329834	0.0	375.798123348043	231.28000967008998	0.0	378.49968224782396	237.04207597811956	0.0	381.0818059133624	242.27322810585895	0.0	382.9095816578199	246.27084453988942	0.0	373.49769230662673	250.3150278968393	0.0	374.5073337057799	250.98071362461772	0.0	376.0771466237349	252.018116974439	0.0	378.37983701186744	251.2348948788655	0.0	379.6050829816435	250.11087329020805	0.0	363.09885980748	231.3291614709983	0.0	366.19039956297524	229.87978233726628	0.0	368.785704422886	229.52980213258428	0.0	369.8212446673092	231.65716561779692	0.0	368.5033758822227	232.96704981207736	0.0	366.20948392243633	232.607383002138	0.0	375.7748286864082	230.8366772796858	0.0	377.0427892022539	229.85385967398386	0.0	377.5621579165565	229.85389163100893	0.0	377.3780890411668	230.5447336875137	0.0	377.11571116374483	230.94102301254216	0.0	376.32894937346975	231.5747273736381	0.0	365.4822378962581	261.5182192832991	0.0	370.34908329846314	260.139251185623	0.0	375.5227703925999	258.9343404371653	0.0	375.7712325132899	259.96756790836724	0.0	376.43074817220486	260.2128966816064	0.0	376.1357946844197	261.54853353283187	0.0	374.43027389368143	262.66090640987346	0.0	375.24346143031835	266.56905716879845	0.0	374.6708965695472	268.47581030794356	0.0	373.40023982552634	269.78478050651523	0.0	370.83545896241446	268.5392455000756	0.0	368.5443078599958	266.251575013637	0.0	365.7623274340098	261.4618073589017	0.0	371.36698199794085	261.4747707979046	0.0	374.47274066334364	261.448517169988	0.0	375.22939879710583	262.04817869843663	0.0	374.49651468833025	262.85449329451984	0.0	374.53918557073825	264.90899289694823	0.0	373.4202508130822	264.8783897233797	0.0	370.257017110778	264.6453216244949	0.0	384.1493380805141	527.3437920085354	0.0	310.35389780209755	334.5148222196335	0.0
80	1.6025117739403452	359.2009134591543	537.9534556324205	0.0	535.7492498480789	558.8061273797186	0.0	597.8773469186347	690.0016984002725	0.0	639.0296322459187	609.7831967263907	0.0	725.0943507931172	687.6624574081534	0.0	611.2497900824695	719.1702020085161	0.0	407.9364349622756	516.4143508368855	0.0	553.9429791809514	540.5927510681632	0.0	625.5035928995841	667.1847848012292	0.0	697.6935902863826	635.5289539654318	0.0	728.0160614549868	611.653428681477	0.0	611.6263019534927	605.1296763845588	0.0	382.5326449692345	249.69546191995263	0.0	370.19088840733076	232.39111509084415	0.0	377.4243492728494	232.2500015302938	0.0	322.8496738218975	240.87262052269602	0.0	333.50198860003457	241.84000998891125	0.0	280.9876865825712	330.66293385736486	0.0	296.65029990501756	470.8586210716672	0.0	410.2698737741608	515.7971889829948	0.0	426.84245918089465	507.02379024747694	0.0	435.6175310038908	502.521597742561	0.0	445.050407285975	500.34541802716444	0.0	455.4617910599669	503.1471533594919	0.0	443.04063515869495	491.9284319822965	0.0	457.94187748263175	493.1300727778326	0.0	466.2034650997362	497.6861088553327	0.0	474.9460066787676	504.8808265099913	0.0	444.40794348447275	494.48832780103083	0.0	460.02055039187877	496.4740672209201	0.0	467.17084978930706	500.79118463070677	0.0	473.2989226361626	507.9528069493621	0.0	443.84021468522565	500.68719338958823	0.0	459.42476345165085	500.1846452851033	0.0	465.82932941594726	504.3166699932972	0.0	471.6663982030017	509.54810150102486	0.0	443.2575877175984	507.640987080534	0.0	455.32352683219676	506.631536404372	0.0	461.8510574939016	509.3096164836796	0.0	466.3948133676672	513.0757271613301	0.0	343.84826861657723	336.77654837151084	0.0	398.75851618907194	443.67842642024226	0.0	504.74243137087757	497.2685898334809	0.0	526.0447082065316	501.6835434891718	0.0	531.8609768893286	502.73982412525925	0.0	543.0545457698516	504.87578783120324	0.0	550.5764003759336	509.2689895238153	0.0	545.0438911074626	488.16233392265684	0.0	556.0049374275085	493.42850862606883	0.0	559.1567573213916	499.8838229787364	0.0	559.3254538833424	508.4244315482568	0.0	546.8839372782822	486.63422246134945	0.0	559.2386788494578	492.82808497649563	0.0	561.626692749434	500.9097076073207	0.0	560.6340307726418	509.107545375971	0.0	552.0602591393742	487.4323435731797	0.0	560.85560409473	493.9203843446475	0.0	562.9294005350248	501.1023655606763	0.0	562.3169271891807	508.1701122124851	0.0	554.7492350102463	489.7937391220652	0.0	558.6862961575124	495.0294488552599	0.0	560.8977972479707	501.30172955190426	0.0	562.3158234633032	506.3676918235566	0.0	333.18084465390456	227.51893176410852	0.0	333.4556989423281	236.90582835194482	0.0	334.7271783083064	245.36485013138983	0.0	336.6833971656676	254.20630610159512	0.0	339.94672116551544	262.7281775086333	0.0	345.18064581575106	269.1335046278237	0.0	352.0588052125942	274.5992208356234	0.0	360.0050306535394	279.61974687808305	0.0	367.0403190072442	282.04638214573146	0.0	372.3524472662586	281.3474466087737	0.0	373.1570889728038	274.990408206644	0.0	372.7532952010186	268.96790531815464	0.0	372.8705973784385	262.2276077759882	0.0	373.7144139675771	254.5743910544957	0.0	374.33273074043564	245.36230880214876	0.0	374.6307159688256	236.94833641241	0.0	375.38976553570416	226.9851392648511	0.0	361.07870515358957	223.49403866316092	0.0	366.2670411277827	221.67752516812152	0.0	371.04375699745884	220.67460574384683	0.0	374.74272908734434	221.29479143521928	0.0	376.911131678991	222.6115696695223	0.0	380.16071607727423	222.21376942809565	0.0	380.79836001886395	221.84598632742566	0.0	380.8028314107285	221.23370608610162	0.0	381.06670171949673	222.2249265910846	0.0	380.7763722492886	223.11329400310828	0.0	378.0139377205319	230.76178615870523	0.0	380.4368292161057	236.38665491199373	0.0	382.9865930132344	241.5275474194918	0.0	384.8202692944248	245.4748258772339	0.0	375.4506719967628	249.65401936638912	0.0	376.7487846118393	250.28506836943967	0.0	378.1483177811303	251.13850387493247	0.0	380.3848249775436	250.43929468917804	0.0	381.64342024619145	249.13049129223714	0.0	365.1890596842455	230.67508836752182	0.0	368.42156365318476	229.03946257130417	0.0	371.03051680225843	228.75139683863773	0.0	371.8177619644158	230.95852587158316	0.0	370.54331351299675	232.39526718477356	0.0	368.37124268863545	231.960981034289	0.0	377.706260516863	230.03768254246805	0.0	379.20708843591245	229.17209571564067	0.0	379.54820616264954	229.17211784070946	0.0	379.5016108958609	229.76446249525426	0.0	379.10942037295797	230.21249967717642	0.0	378.47953867383245	230.96243910738607	0.0	367.7297183047156	260.8538381289446	0.0	372.3803484968501	259.1493070015124	0.0	377.61862298228635	258.2709730391061	0.0	378.00022124480995	259.13119086782524	0.0	378.5168577011284	259.215863410857	0.0	378.382237052571	260.88029677761625	0.0	376.6122295571647	261.90139506410395	0.0	377.4704905787356	265.6455268804127	0.0	377.012619815631	267.73003941502975	0.0	375.71555355508264	268.86101007981796	0.0	373.14985695516447	267.7309260127889	0.0	370.6618927957395	265.3409512473426	0.0	368.02058000790396	260.63653137690073	0.0	373.58782277252226	260.6296674749477	0.0	376.59540308695875	260.6340850434236	0.0	377.47496502498075	261.22042360955123	0.0	376.7720075202472	262.1461701799352	0.0	376.73930369765924	264.1449563553809	0.0	375.4982528587173	264.14739061729927	0.0	372.63687143287484	263.75561133879603	0.0	381.6625813019368	527.2662469013891	0.0	312.4179775995742	333.71813427340385	0.0
81	1.6225431711145994	355.0765441469026	538.8768360949526	0.0	535.2473274506724	557.6188359429862	0.0	584.0151044061606	693.1507062075356	0.0	604.3201477124625	590.4017620857147	0.0	732.9643766115826	654.5223456219528	0.0	597.842150825695	715.5894982779486	0.0	406.0020394442378	517.8572263511142	0.0	557.393764091844	537.2652770251078	0.0	623.9282024075911	646.2125296958144	0.0	686.0241009053149	607.0413318619117	0.0	731.6509072867705	617.8056813060643	0.0	641.1772947662216	582.1589882906026	0.0	384.5682939250977	249.12015507716697	0.0	372.2760526069136	231.96395369077376	0.0	379.4582744448143	231.63705129106214	0.0	325.064625149578	240.6655163131233	0.0	335.5503561842427	241.67865580597345	0.0	283.22133045397123	329.7785268799394	0.0	301.82093036061514	469.73759307163215	0.0	416.8081708514475	515.9150351008159	0.0	433.9518855078975	507.4754210500903	0.0	442.93325414945275	503.6415457803741	0.0	453.0197245297487	501.9622716721811	0.0	463.9293835539095	505.33081806441703	0.0	450.8471636329373	492.7452950628537	0.0	466.1142416206807	494.5280738805781	0.0	474.4101985737902	499.77434296336236	0.0	482.15044836831646	507.054374452855	0.0	451.65314784183613	495.18541740088483	0.0	467.2759259079083	497.60809347538753	0.0	474.8201341520114	502.4147051389507	0.0	481.209239784999	510.00026187577794	0.0	450.53804322347287	500.543692486496	0.0	466.2479867977756	500.9406375564286	0.0	473.14450241909003	505.8277665053639	0.0	478.6436903865035	511.61624457310745	0.0	449.55680599419884	507.1935861009936	0.0	461.6625118148618	507.11438283272946	0.0	468.15818987951207	510.3275208288599	0.0	472.8665810743402	514.6990206868045	0.0	345.83397196332226	336.6100242802959	0.0	400.24689902336405	442.7612958275674	0.0	504.8202522157107	496.9669699096549	0.0	529.1926224809104	502.0422221831652	0.0	535.3272571025457	504.13068757258344	0.0	546.3351617744108	506.6944268038973	0.0	554.6474205234988	511.1478433327783	0.0	547.7745386585502	489.098294586856	0.0	559.7166965659173	494.2204487531802	0.0	562.6324250126421	501.4059523426888	0.0	563.0086604257298	510.12130266295793	0.0	550.8734568302441	487.27184312781577	0.0	563.1894525814839	493.5358066685056	0.0	565.6649359821412	502.13561812613585	0.0	564.7003852927484	510.60604558809683	0.0	554.8257776179717	487.7089896317543	0.0	564.6754102488266	493.7888452424693	0.0	566.9500005446805	501.7867506463852	0.0	566.3478818819397	509.5682466766489	0.0	557.5273020776904	489.8345506090853	0.0	562.8355166986651	494.8936950088238	0.0	564.8744561396934	501.48504944735345	0.0	566.3926439299524	507.7548940184904	0.0	335.5915731307143	227.15944839164402	0.0	335.80071389153716	236.40435632584217	0.0	336.9712822101244	245.0269974373118	0.0	338.8992642640492	253.77404713294302	0.0	342.39112072831426	262.2364753855406	0.0	347.63238681165876	268.8325274053942	0.0	354.27052424921834	274.19322207327383	0.0	362.36026947835757	279.32662188536955	0.0	369.3322386314761	281.55211690469093	0.0	374.69172056364584	281.05203291194124	0.0	375.25144425996115	274.01500633489326	0.0	374.9152936906069	268.70179906475676	0.0	374.91495490926746	261.8991451074259	0.0	375.55396177349013	254.22524825086182	0.0	376.142565200005	245.07288913931978	0.0	376.44470977672194	236.74501270579992	0.0	377.2361657358812	226.38022431154658	0.0	363.1905213013147	222.97500498620607	0.0	368.36618172010543	221.00871421566322	0.0	373.23071638602727	220.22011016750466	0.0	376.7365699671976	220.71429791971983	0.0	378.94548201984315	222.11387178754163	0.0	382.06226970130973	221.49247716886313	0.0	382.89621383509393	221.31474823129676	0.0	382.8873936093419	220.64389470297124	0.0	383.10253528882345	221.5094475831754	0.0	382.8667938387664	222.53038842595893	0.0	380.1531472213111	230.62319789602222	0.0	382.32485145639504	236.0058865261143	0.0	384.86171432578055	240.95171904124473	0.0	386.68907885199957	244.97805864886996	0.0	377.38632799408254	249.33790356227087	0.0	378.8801018390397	249.85701570706945	0.0	380.182285973518	250.49992898912274	0.0	382.2890029412759	249.91928922654927	0.0	383.6254352806242	248.4432578402745	0.0	367.20469391696747	230.23535371775407	0.0	370.61358362541955	228.40538186779958	0.0	373.24220045823455	228.07697668897796	0.0	373.7467660810598	230.43152474654943	0.0	372.50508317164844	232.07823150839198	0.0	370.43071792089023	231.54607807930793	0.0	379.59160451715695	229.36995191974336	0.0	381.2407915186308	228.56861983929556	0.0	381.55344056086335	228.56863217640057	0.0	381.583332092747	229.15813461730576	0.0	381.0541789323516	229.68460005879004	0.0	380.49799929688794	230.48002307057297	0.0	369.83354598271205	260.5021820984355	0.0	374.3745675077506	258.4918368024018	0.0	379.62833190971884	257.9368193942149	0.0	380.14287707843056	258.46956184250905	0.0	380.54557586079585	258.4676593478982	0.0	380.51707460259604	260.6146684890074	0.0	378.7119916043192	261.418797360014	0.0	379.5363074755852	264.93306834455086	0.0	379.20657659101124	267.3692056041661	0.0	377.8416175693527	268.2709177806714	0.0	375.3392182033163	267.29374611320094	0.0	372.74250051748913	264.7322867996369	0.0	370.1874661993156	260.018217678903	0.0	375.6776519319967	259.99973598092095	0.0	378.54238632733234	260.0650029727358	0.0	379.58946099131845	260.6103874247532	0.0	378.9729972734376	261.7869152051746	0.0	378.81625120675363	263.7760855068164	0.0	377.49602874537163	263.78910049969124	0.0	374.90714115683164	263.2371645006184	0.0	378.92052187282445	527.2497699865512	0.0	314.527651208647	333.197970583806	0.0
82	1.642574568288854	350.6889679962376	539.3652682003103	0.0	534.7817525441511	555.0008448235595	0.0	570.5859859992075	693.2297989046536	0.0	583.2974938447284	567.1484371511103	0.0	738.6926061627607	617.1764080857358	0.0	603.4703321689898	711.4309986877269	0.0	402.88547572253395	519.3534281164956	0.0	561.1503821877005	529.8438385576814	0.0	620.5458777965007	611.2363807943958	0.0	670.2809803014039	574.1073748129018	0.0	734.7072078458251	611.5802671545146	0.0	669.9113178404754	559.6718863439836	0.0	386.6075297494307	248.89767305972708	0.0	374.3243408078987	231.75428808401057	0.0	381.48504472224545	231.2068070174057	0.0	327.1525084857309	240.4568107386475	0.0	337.58999960583134	241.43929874601915	0.0	285.68102040823436	329.1190351515376	0.0	306.5665404052948	468.4281764591301	0.0	423.23565154841214	515.8582702049112	0.0	440.9325473745015	507.81943321255994	0.0	450.15480645557716	504.9003307586705	0.0	460.98433384742395	503.6882455788714	0.0	471.9720888866472	507.41320767492857	0.0	458.3861267179457	493.26281909234734	0.0	474.31881379484815	495.70103580138647	0.0	482.55108364894176	501.7316943466693	0.0	489.01694147235344	509.1046214898599	0.0	458.85497155359445	495.5748924640578	0.0	474.53660312078836	498.4322613011718	0.0	482.50104788009094	503.99358489742644	0.0	488.71994695578377	511.9420040873148	0.0	457.37553251156095	500.1328411681717	0.0	473.1499382534155	501.55510738736683	0.0	480.48377884673425	507.41651543552194	0.0	485.4266505417689	513.7064103170334	0.0	456.0362710475159	506.6424502044387	0.0	468.20320733054643	507.54171829319637	0.0	474.6043402822781	511.2557612990027	0.0	479.47404189954113	516.2342821272154	0.0	347.6461750308157	336.03981914686875	0.0	402.28935504692134	442.28567014364324	0.0	503.3799202040914	496.6969004420632	0.0	531.7050830547759	502.30648988470375	0.0	538.056241409343	505.3373445531909	0.0	548.9576125871672	508.4390169100117	0.0	558.0976035024233	512.7925995249929	0.0	549.979973621007	489.95043562523455	0.0	562.8807451056101	495.3157335629798	0.0	565.6003548147584	503.17378636526536	0.0	566.2041833234553	511.98490783918686	0.0	554.4531708463237	487.8485587055899	0.0	566.8068442677284	494.3919475166009	0.0	569.3369915730754	503.5588186927438	0.0	568.3772594471005	512.2333114116395	0.0	557.5774586638453	487.96462800584277	0.0	568.3683202693418	493.96462046314383	0.0	570.6234553598124	502.7068572487702	0.0	570.1833888666109	511.25786257053744	0.0	560.5877161566017	489.9537245292714	0.0	566.9714029329585	494.6633399895928	0.0	568.8015531471036	501.74595479841025	0.0	570.346717515538	509.36184892493003	0.0	337.893370289962	226.8292280476523	0.0	337.94305677349365	235.9614968852063	0.0	338.99470579700585	244.79100241944835	0.0	340.9707695576324	253.42714222122916	0.0	344.6420043530404	261.764494673312	0.0	349.90174807389764	268.7158297860383	0.0	356.2390415030126	274.03240470097245	0.0	364.42605754241566	279.36807003716063	0.0	371.3114546644739	281.3838202308625	0.0	376.7378405188185	281.13152048529645	0.0	377.11041979397845	273.29164120032624	0.0	376.97761763873837	268.6094050439847	0.0	376.8879508114142	261.8219412199227	0.0	377.4473946064092	254.07573594564923	0.0	378.0456471658433	245.03811034455296	0.0	378.34894399441697	236.58141666832543	0.0	379.1509219209589	225.8200125420436	0.0	365.2962622149211	222.4804864912093	0.0	370.50268954317517	220.46278291762422	0.0	375.34222892755474	219.94498037412365	0.0	378.68924925624714	220.1353413031272	0.0	381.0189958353544	221.65197222266227	0.0	384.01243872581585	220.8696662913444	0.0	384.9875874500364	220.78015531270736	0.0	384.98543233100304	220.16992818310354	0.0	385.1053618576062	220.88869354168025	0.0	384.98730528077283	222.0633678407837	0.0	382.25595741861946	230.67760497371094	0.0	384.2704810784366	235.71291102177904	0.0	386.81724220588364	240.47312742737407	0.0	388.56127058228367	244.79869462220412	0.0	379.3893239261904	249.3441945055878	0.0	380.9452772889135	249.6551970276725	0.0	382.22511655462824	250.1643629390703	0.0	384.1747675468759	249.66165369384265	0.0	385.63780944715273	248.16662259454426	0.0	369.1576786525945	229.83194448017048	0.0	372.7722793497817	227.95404343411388	0.0	375.41983578186375	227.49678521377072	0.0	375.7446760280215	229.98330941413002	0.0	374.4423523539871	231.86346591257634	0.0	372.4046116240209	231.19621316377055	0.0	381.60570231106817	228.80694103191203	0.0	383.2301296807901	227.99117101960158	0.0	383.6182438513137	227.99117140089461	0.0	383.6727268783147	228.61081158078807	0.0	383.0894487296313	229.25861484300518	0.0	382.4800754345655	229.9870964461496	0.0	371.8187571079434	260.43793022044827	0.0	376.3867190246669	258.19920187539043	0.0	381.59395345278	257.9178344257215	0.0	382.23594901747964	257.9701093231247	0.0	382.52676964500614	257.9393495056946	0.0	382.53014304433606	260.71432206109296	0.0	380.79218857288106	261.1957748137869	0.0	381.4686514640103	264.47650550919906	0.0	381.24730477456507	267.3345382613497	0.0	379.7615739511239	268.0857669926848	0.0	377.37639907661304	267.2414633089179	0.0	374.773201402422	264.4878476673588	0.0	372.2596978843652	259.67873911092363	0.0	377.6651397490995	259.6626646091231	0.0	380.401398364816	259.8226811263418	0.0	381.6060688575298	260.2981307674385	0.0	381.0991741115042	261.74363479008133	0.0	380.7884226873427	263.7506207045087	0.0	379.4388396859645	263.7625262038612	0.0	377.0219392240317	263.0303674869016	0.0	375.7970413374034	527.2585878828643	0.0	316.6635977195256	332.5944900060224	0.0
